<?xml version="1.0" encoding="UTF-8" standalone="no" ?>
<!DOCTYPE svg PUBLIC "-//W3C//DTD SVG 1.1//EN" "http://www.w3.org/Graphics/SVG/1.1/DTD/svg11.dtd">
<svg xmlns="http://www.w3.org/2000/svg" xmlns:xlink="http://www.w3.org/1999/xlink" version="1.1" width="280" height="259" viewBox="0 0 280 259" xml:space="preserve">
<desc>Created with Fabric.js 3.6.6</desc>
<defs>
</defs>
<g transform="matrix(0.28 0 0 0.27 132.18 125.82)"  >
<g style=""   >
		<g transform="matrix(1 0 0 1 1 1)" id="Layer_1"  >
<path style="stroke: none; stroke-width: 1; stroke-dasharray: none; stroke-linecap: butt; stroke-dashoffset: 0; stroke-linejoin: miter; stroke-miterlimit: 4; fill: rgb(0,0,0); fill-rule: nonzero; opacity: 1;"  transform=" translate(-481, -481)" d="M 540 961 C 360 961 180.5 961 1 961 C 1 641 1 321 1 1 C 321 1 641 1 961 1 C 961 321 961 641 961 961 C 820.833313 961 680.666687 961 540 961 M 696.605896 323.493378 C 696.169495 324.0159 695.733093 324.538452 694.692261 325.398438 C 690.280945 330.106232 685.758057 334.715057 681.47937 339.540497 C 668.910645 353.715637 662.396912 370.477661 663.50946 389.26062 C 664.407288 404.419281 667.427429 419.452271 668.897095 435.220917 C 668.712769 435.462952 668.528442 435.705017 667.727173 435.646606 C 654.134705 422.672455 640.510681 409.731049 626.978394 396.694427 C 624.4953 394.302307 622.206299 393.077789 619.305542 395.844055 C 611.998291 402.812439 604.690552 409.780426 597.124634 416.995026 C 604.316101 424.439453 609.791016 431.442261 611.086792 441.244781 C 602.245239 445.863678 593.47168 450.447083 584.829468 454.961884 C 564.641724 427.493713 549.910034 397.92514 535.103455 368.277283 C 528.178955 374.582306 521.876953 380.499329 515.353149 386.160889 C 513.158875 388.065125 513.017212 389.70166 514.230408 392.118011 C 517.064209 397.762085 519.727905 403.492035 522.42865 409.202301 C 526.153381 417.077728 526.138367 417.081207 519.83252 423.381256 C 518.653992 424.558685 517.161072 425.588959 516.43573 427.005798 C 515.690125 428.462067 515.084167 430.48645 515.503174 431.951691 C 516.912476 436.880554 519.301025 441.561829 520.398987 446.539886 C 522.108704 454.291382 522.778564 462.206024 520.691772 470.601379 C 511.758942 468.139282 507.09903 474.141144 503.096985 479.108307 C 501.374756 470.981537 500.22406 462.957886 497.929077 455.276154 C 493.503387 440.462585 488.203583 425.911346 483.706268 411.117584 C 480.656982 401.086975 479.93045 390.845917 483.881317 380.736603 C 484.054688 380.29303 483.826172 379.692413 483.829926 379.740295 C 477.127045 386.090302 470.197266 392.295959 463.758301 398.974762 C 461.831573 400.973297 460.77948 404.18927 460.180634 407.027618 C 457.84024 418.120605 460.001892 428.705627 463.658142 439.317047 C 468.68811 453.915497 472.937225 468.78302 476.922485 484.134033 C 476.734528 484.344482 476.5466 484.554962 475.78299 484.40567 C 474.136475 482.329102 472.104309 480.45285 470.904907 478.144012 C 461.890442 460.790924 452.99118 443.377289 444.179779 425.920044 C 442.428497 422.45047 441.210358 418.711792 439.494629 414.475586 C 433.094971 420.377014 427.431824 425.962433 421.356842 431.056671 C 418.045898 433.833008 417.687775 436.504242 419.3797 440.142883 C 423.240112 448.445007 421.994141 457.136261 421.088837 465.795715 C 410.529358 452.536682 407.531647 438.474274 416.47168 422.579559 C 409.802094 428.169006 404.115173 434.199432 398.467407 440.266296 C 388.095032 451.408356 386.270538 465.905548 393.47876 479.403992 C 399.114441 489.957764 408.178131 497.265747 417.233002 504.588989 C 425.6008 511.356537 425.349152 511.047241 433.642944 504.421692 C 439.323029 499.884064 443.356415 495.215607 441.979004 487.02005 C 442.161285 486.866455 442.343597 486.712891 442.95816 487.13974 C 446.105988 496.575867 450.260834 505.358185 458.675415 511.380402 C 465.328705 516.142151 470.631317 515.908325 476.641693 510.463348 C 481.325195 506.220337 486.421417 502.30368 490.45813 497.504974 C 497.198212 489.492493 506.054535 490.657562 516.166443 489.974854 C 510.160797 500.014221 504.797211 508.980286 498.743256 519.100403 C 501.152435 517.632996 502.903687 517.04657 503.95639 515.847107 C 510.737183 508.120911 517.492554 500.364227 523.97876 492.391785 C 526.466309 489.334198 528.917847 487.107117 532.984131 486.039917 C 541.319214 483.852356 549.548828 481.132507 557.599854 478.051666 C 561.278931 476.643799 563.044312 477.439453 565.52478 480.251068 C 572.314758 487.947266 578.935669 496.017487 586.835815 502.450867 C 596.163757 510.046997 606.975159 512.699707 617.973389 504.659027 C 618.163818 504.519775 618.545044 504.641571 618.962708 504.641571 C 619.21283 505.874451 619.460693 507.096375 619.80127 508.775482 C 627.134094 502.57016 634.260681 496.919769 640.862183 490.71109 C 642.737427 488.94751 643.892639 485.582001 643.972046 482.909332 C 644.173706 476.120697 643.579529 469.308411 643.905884 462.008636 C 644.095642 461.830627 644.285461 461.652649 645.076477 461.772736 C 663.161011 477.905853 681.245483 494.03894 699.358459 510.197449 C 697.397095 512.941833 695.720215 515.288208 694.043274 517.634583 C 696.149597 517.646973 697.902039 517.089417 698.933594 515.904358 C 706.12677 507.640656 713.069702 499.157471 720.335938 490.960144 C 722.070496 489.003326 724.533875 487.328217 726.992859 486.450836 C 732.771729 484.388916 738.820557 483.093262 744.634094 481.116882 C 757.669617 476.685364 757.557068 476.658295 766.348511 487.682556 C 773.047058 496.082306 780.569824 503.660461 790.869324 507.56424 C 798.036072 510.280579 805.300903 510.581329 811.661438 505.389526 C 818.474304 499.82843 825.163818 494.103882 831.684204 488.204193 C 833.630859 486.44281 834.827698 483.852692 836.368103 481.642303 C 834.553711 481.687012 833.549744 482.393188 832.600159 483.166107 C 824.375549 489.86087 820.14502 490.233917 810.455688 485.154999 C 800.063599 479.707703 792.703247 470.926605 785.422668 462.983673 C 793.717346 455.452087 801.777466 448.133514 809.837524 440.814941 C 809.532837 440.469147 809.228149 440.123322 808.923462 439.777496 C 799.171509 444.861542 789.419495 449.945557 779.9021 454.907288 C 759.572083 427.442078 745.034424 397.808197 730.088318 368.324585 C 723.197571 374.572449 716.966431 380.329315 710.60199 385.934937 C 708.364746 387.905487 707.968384 389.722778 709.38916 392.421387 C 711.943359 397.272858 714.09906 402.332153 716.524048 407.254028 C 721.280762 416.908508 721.438843 417.028168 713.564209 424.601593 C 710.314209 427.727234 708.566101 430.397552 711.646362 434.65097 C 712.964722 436.471466 713.545349 438.896484 714.184875 441.126068 C 716.794006 450.222229 717.511047 459.437927 716.168701 469.813873 C 715.186951 468.49115 714.826599 468.157593 714.649353 467.74527 C 701.397766 436.919464 689.462463 405.653168 688.532715 371.576019 C 688.087891 355.272278 688.873779 338.86557 699.971313 325.130188 C 700.139771 325.0383 700.227478 324.894348 700.949341 324.39859 C 701.959351 323.252594 702.96936 322.106628 704.63916 320.806946 C 707.828979 317.435547 711.018738 314.064148 714.208557 310.692749 C 713.833069 310.29071 713.457642 309.888672 713.082214 309.486633 C 709.042297 312.985565 705.00238 316.484497 700.512512 320.129211 C 700.244629 320.314728 700.051575 320.559357 699.290283 320.919464 C 698.67572 321.505035 698.061096 322.090637 697.148438 322.880829 C 697.148438 322.880829 697.076721 323.235138 696.605896 323.493378 M 229.800049 521.131592 C 230.871658 522.685791 232.00296 524.202759 233.002716 525.80188 C 235.199326 529.315308 237.137589 533.007812 239.546158 536.36554 C 241.541794 539.147583 244.391159 539.272034 246.875381 536.956238 C 254.214584 530.114624 261.431091 523.141296 267.531281 517.328918 C 263.254456 510.460144 259.665253 505.150208 256.554962 499.573212 C 253.405838 493.926605 256.303223 488.429108 262.695496 486.51828 C 271.919586 483.760895 281.128052 480.917816 290.202332 477.712555 C 292.933105 476.747986 294.523438 477.050507 296.176117 479.201019 C 298.709869 482.498108 301.298035 485.757874 303.974487 488.939819 C 310.230591 496.377533 316.987671 503.280701 326.179688 507.073853 C 334.001251 510.301453 341.699036 510.605286 348.810974 505.062378 C 353.719025 501.237122 358.635437 497.422516 364.149628 493.135498 C 364.149628 501.790771 364.191956 510.011383 364.13974 518.231384 C 364.06131 530.574951 361.224518 541.772095 350.698181 549.893066 C 352.265747 549.579224 353.621094 549.074951 354.611481 548.170837 C 360.991821 542.346252 367.534363 536.670349 373.560547 530.493774 C 381.922668 521.922913 386.604187 511.423004 386.090973 499.39447 C 385.304077 480.951874 384.083801 462.514648 382.466736 444.126221 C 381.676025 435.134766 379.575806 426.258514 378.068207 417.329498 C 404.411346 414.527679 426.388641 404.118103 442.910797 383.279999 C 441.711334 383.159088 440.629303 383.341858 439.716827 383.837067 C 415.96344 396.727844 390.69873 398.745819 364.603027 394.040161 C 340.38327 389.672791 319.102386 378.576538 299.135162 364.654205 C 293.389008 360.647675 293.455719 360.640869 288.292511 365.829468 C 283.3367 370.809692 278.294067 375.703491 273.1586 380.764313 C 270.883148 376.529907 268.728333 372.519928 266.566772 368.497467 C 260.313263 374.148956 254.534317 379.621094 248.466492 384.751526 C 245.365005 387.373901 244.380844 389.571472 246.501572 393.541595 C 250.631882 401.273712 254.119003 409.349396 257.615997 416.740601 C 254.404343 420.154968 251.721298 423.365387 248.653625 426.152496 C 246.310135 428.281677 245.873413 429.918121 247.454926 432.918701 C 253.074005 443.579834 253.928894 455.179596 252.946716 466.946686 C 252.847626 468.134003 251.060791 469.744202 249.742722 470.159088 C 245.9561 471.351013 243.628204 470.338348 242.106018 465.910828 C 231.569382 435.263916 220.68689 404.73584 209.89003 374.178558 C 207.47731 367.350067 204.963531 360.557312 202.427994 353.559662 C 201.133179 354.056213 200.393906 354.128021 199.974701 354.531982 C 192.902512 361.346771 185.750412 368.087616 178.941757 375.158508 C 177.746765 376.399536 177.249268 379.2854 177.748383 381.035553 C 183.383469 400.795197 182.096436 420.960815 181.602722 441.083984 C 181.549149 443.266846 181.194992 445.442352 180.894531 448.491272 C 168.870819 433.330872 157.457916 418.940643 145.729736 404.152893 C 137.671066 411.882477 130.022934 419.033569 122.683838 426.488922 C 121.755966 427.431488 121.961861 430.131073 122.489594 431.738495 C 123.772247 435.645233 126.06488 439.261627 127.045212 443.219269 C 131.221909 460.080872 130.619049 477.225525 129.48291 494.375031 C 129.135513 499.618591 128.903244 504.869751 128.542877 511.505615 C 134.621063 505.652924 139.341125 500.501465 144.689255 496.115967 C 150.987885 490.950958 155.119644 485.144531 154.183273 476.605316 C 154.048218 475.37381 154.519867 474.075745 154.884064 471.657959 C 162.045929 481.263428 168.604767 490.060089 175.358582 499.118225 C 181.437866 493.454407 186.824173 488.002838 192.679047 483.112213 C 197.786179 478.846222 201.156357 474.144562 201.284821 467.175781 C 201.35907 463.147522 202.56572 459.140167 203.379654 454.449493 C 204.101013 455.518921 204.55127 455.985138 204.771637 456.542267 C 212.653061 476.467346 220.534531 496.392487 228.324677 516.353271 C 228.811554 517.600769 228.560059 519.136475 228.045715 520.75531 C 227.784332 521.065796 227.522934 521.376221 227.261551 521.686707 C 227.868011 521.486877 228.474472 521.287048 229.800049 521.131592 M 296.590576 597.166931 C 297.116516 603.240601 297.642426 609.314209 298.193451 615.678101 C 300.813446 615.481018 302.902008 615.323914 305.223022 615.149353 C 305.223022 611.667236 305.223022 608.473328 305.223022 606.317993 C 307.415619 607.558105 310.195251 610.36731 312.087128 609.86084 C 314.07608 609.328308 315.215485 605.622314 316.744568 603.27478 C 317.12262 606.830872 317.489166 610.278931 317.893188 614.079651 C 320.414429 613.90332 322.647644 613.74707 325.20694 613.567993 C 324.362427 603.578796 323.569183 594.195862 322.781036 584.873413 C 317.307129 583.636963 314.303345 585.44397 313.250702 590.708496 C 312.72226 593.351379 311.594788 595.874573 310.422119 599.403076 C 308.561462 596.029602 306.919098 593.726257 305.959229 591.166931 C 304.127319 586.282715 300.973145 585.074646 295.872986 587.084473 C 296.056976 590.030029 296.251068 593.137329 296.590576 597.166931 M 637.747253 595.188965 C 637.586975 588.044983 635.153259 585.026245 628.317017 584.200439 C 624.276978 583.712402 620.170654 583.773438 615.911316 583.579224 C 615.232971 593.446472 614.58844 602.821838 613.920227 612.542297 C 616.670105 612.542297 618.879272 612.542297 621.312195 612.542297 C 621.618042 609.612244 621.901001 606.901062 622.34906 602.607727 C 624.880432 606.559814 626.088745 609.924988 628.474854 611.752014 C 630.819702 613.547485 634.360413 613.780945 637.376404 614.69989 C 637.581482 614.234375 637.786621 613.768921 637.99176 613.303406 C 635.924744 610.221252 633.857727 607.139099 632.599487 605.262939 C 634.604065 601.507874 636.079956 598.743225 637.747253 595.188965 M 659.207764 604.710266 C 660.639221 604.710266 662.070679 604.710266 663.673523 604.710266 C 663.828125 602.388367 663.946716 600.607239 664.062805 598.864868 C 652.474854 596.590759 652.474854 596.590759 653.637634 593.195923 C 657.524414 593.498352 661.434326 593.802612 665.648499 594.130554 C 665.797119 591.535583 665.915283 589.472778 666.046143 587.187866 C 659.11145 586.626465 652.701599 586.107544 645.867188 585.55426 C 645.020569 595.315613 644.196777 604.813293 643.342773 614.659424 C 650.375061 615.226074 656.91217 615.752747 663.798645 616.307617 C 663.923706 613.682373 664.027649 611.5 664.129578 609.360291 C 651.647766 608.209778 651.647766 608.209778 652.355652 604.173035 C 654.304504 604.324707 656.276367 604.47821 659.207764 604.710266 M 512.772339 579.905212 C 510.33728 579.485779 507.902191 579.066406 504.887543 578.54718 C 504.887543 585.919128 504.80896 592.379028 504.911438 598.836182 C 504.999695 604.398621 509.220215 608.388672 515.231201 608.835266 C 521.656921 609.312683 527.363586 606.11554 527.795044 600.801575 C 528.366333 593.764954 527.93573 586.646973 527.93573 579.530884 C 525.625854 579.530884 523.380554 579.530884 520.689819 579.530884 C 520.689819 585.330322 520.645264 590.812561 520.706909 596.29364 C 520.742493 599.457153 520.13208 602.176147 516.247375 601.994019 C 512.26001 601.807068 512.275574 598.818176 512.394897 595.815735 C 512.59314 590.829285 512.671204 585.838074 512.772339 579.905212 M 593.625916 604.797424 C 592.866089 602.766235 591.464783 600.733398 591.470215 598.704224 C 591.484985 593.245056 592.100403 587.787537 592.501709 581.976501 C 589.815308 581.976501 587.449951 581.976501 584.854919 581.976501 C 584.526672 588.878479 583.962341 595.518005 583.971985 602.156738 C 583.980103 607.690735 588.422363 611.39563 594.678223 611.798218 C 600.729248 612.187744 606.288025 608.881592 606.854248 603.898926 C 607.636169 597.017029 607.814514 590.066589 608.269714 582.85553 C 605.450867 582.85553 603.218506 582.85553 600.567932 582.85553 C 600.315491 588.578857 600.0177 594.03772 599.854065 599.50061 C 599.747559 603.055664 598.523865 605.325806 593.625916 604.797424 M 459.879028 595.338745 C 459.879028 589.926941 459.879028 584.515198 459.879028 579.134155 C 456.708862 579.134155 454.475647 579.134155 452.276093 579.134155 C 452.276093 585.287781 452.24704 591.103882 452.288391 596.919556 C 452.308838 599.794434 451.378326 601.921997 448.154999 601.875061 C 445.095764 601.830566 443.901672 600.032104 443.968201 596.982544 C 444.097656 591.048462 444.006104 585.109436 444.006104 579.324097 C 440.988281 579.324097 438.747101 579.324097 436.632202 579.324097 C 436.632202 586.491577 436.244537 593.317444 436.841644 600.05603 C 437.051819 602.427551 439.230988 605.18042 441.289581 606.714722 C 445.360229 609.748657 450.123535 609.43689 454.538452 607.152954 C 458.877991 604.908142 460.362946 601.015259 459.879028 595.338745 M 354.220673 611.532532 C 356.615723 611.631409 357.577789 611.229431 356.263367 608.438049 C 353.160065 601.847595 350.142853 595.181763 347.689636 588.331909 C 345.956329 583.492126 343.443024 581.625671 338.312683 583.693298 C 335.668396 593.201599 332.979187 602.87146 330.05484 613.386841 C 333.522247 612.037598 337.744598 615.243896 338.73584 609.940918 C 339.240326 607.242065 340.547394 606.436401 343.081635 606.42804 C 345.451996 606.420227 347.833771 605.907349 348.433044 609.219116 C 348.976624 612.2229 351.13974 612.067139 354.220673 611.532532 M 396.417664 580.753662 C 393.941742 581.271301 389.725525 581.154907 389.268921 582.408264 C 386.015594 591.338013 383.529938 600.547363 380.669098 610.105042 C 384.838043 609.791382 389.025055 611.627075 389.919678 605.627319 C 390.272675 603.259949 397.595428 602.776367 398.153259 605.074768 C 399.660645 611.286011 403.876434 608.788147 407.924744 608.928589 C 404.125397 599.441711 400.506592 590.40564 396.417664 580.753662 M 498.172913 583.302612 C 494.112122 578.547729 489.534454 577.161194 483.985321 579.221375 C 478.753143 581.164001 476.838348 585.176636 477.172821 590.57196 C 477.326904 593.058228 477.128662 595.564209 477.181732 598.059265 C 477.30246 603.734192 480.285034 607.07959 486.149841 608.210144 C 491.757568 609.29126 496.285126 607.016541 498.920044 601.199219 C 496.47879 600.780884 493.922302 599.524597 491.995667 600.16449 C 485.970215 602.165649 484.72702 601.539124 484.702606 595.096924 C 484.697571 593.765686 484.691071 592.434204 484.710785 591.103271 C 484.792847 585.562561 486.865631 584.186279 491.822998 586.370605 C 494.881226 587.71814 496.762787 587.026489 498.172913 583.302612 M 408.382843 579.882385 C 407.94339 582.05481 407.503937 584.227234 406.957336 586.929443 C 410.263519 586.929443 412.50528 586.929443 414.897461 586.929443 C 415.275726 594.389038 415.635803 601.490234 415.99704 608.614746 C 418.401703 608.614746 420.640991 608.614746 423.163757 608.614746 C 423.163757 601.145081 423.163757 593.93457 423.163757 586.671936 C 425.792694 586.456055 428.032349 586.272095 430.026978 586.108276 C 430.026978 583.536621 430.026978 581.44989 430.026978 579.832642 C 422.850159 579.832642 416.046844 579.832642 408.382843 579.882385 M 569.878662 580.869507 C 565.317261 580.608276 560.755859 580.347046 556.018311 580.075684 C 556.018311 582.829773 556.018311 584.893127 556.018311 587.044922 C 558.529907 587.323364 560.764099 587.571106 562.919067 587.810059 C 562.919067 595.367188 562.919067 602.555969 562.919067 609.806335 C 565.400391 609.806335 567.503357 609.806335 569.834595 609.806335 C 570.221558 602.424866 570.598755 595.230469 570.989319 587.780518 C 573.858826 587.780518 576.11908 587.780518 578.556396 587.780518 C 578.556396 585.436157 578.556396 583.398254 578.556396 580.888672 C 575.742371 580.888672 573.269836 580.888672 569.878662 580.869507 M 360.157898 589.080872 C 361.397217 589.159241 362.636566 589.237671 363.970001 589.322021 C 364.423187 596.653076 364.851715 603.584595 365.275818 610.444946 C 367.931854 610.444946 370.278992 610.444946 372.718781 610.444946 C 372.36322 602.888794 372.030853 595.825439 371.690674 588.59613 C 374.596741 588.28186 376.83786 588.039429 379.378235 587.764709 C 379.189941 585.370605 379.0289 583.323425 378.842407 580.952209 C 370.921478 581.394287 363.537384 581.806335 355.307404 582.265625 C 357.355042 584.888367 353.40152 589.495117 360.157898 589.080872 M 791.66626 326.128113 C 792.381836 327.31073 793.097473 328.493317 793.81311 329.675903 C 794.67865 328.588257 795.998596 327.61261 796.300842 326.386139 C 796.729919 324.645294 796.40979 322.719849 796.40979 320.613495 C 798.439514 322.587494 800.176453 325.386719 801.360107 325.169647 C 803.170288 324.837616 804.598694 322.4245 806.491028 320.604553 C 806.683472 323.627686 806.859131 326.38681 807.150085 330.957886 C 809.35907 329.147675 811.713806 328.11261 811.718323 327.067383 C 811.745422 320.822174 811.230835 314.574646 810.897583 308.322632 C 802.497314 307.191956 805.455444 315.768707 801.338867 318.007568 C 800.338318 315.362885 799.612976 312.576172 798.225098 310.171844 C 797.602051 309.09256 795.65564 308.311981 794.305603 308.305878 C 793.587219 308.302582 792.319824 310.197937 792.23114 311.310486 C 791.86084 315.955872 791.843506 320.629425 791.66626 326.128113 M 536.089172 582.090332 C 536.089172 590.958496 536.089172 599.826721 536.089172 608.90686 C 542.086914 608.90686 548.317627 608.90686 554.490723 608.90686 C 554.490723 606.535828 554.490723 604.463074 554.490723 602.179565 C 550.614197 602.006775 547.035522 601.847229 543.359558 601.683411 C 543.359558 594.263977 543.359558 587.238342 543.359558 579.203613 C 540.685425 579.950867 538.397095 580.590332 536.089172 582.090332 M 420.858215 638.058594 C 420.858215 642.991333 420.858215 647.924072 420.858215 653.039062 C 424.873688 653.039062 428.453735 653.039062 432.353973 653.039062 C 432.153046 651.552856 431.987061 650.325317 431.815308 649.055115 C 430.663269 649.055115 429.778442 649.24231 429.020233 649.012207 C 427.822449 648.648743 426.709595 648.005371 425.560822 647.480469 C 426.607727 646.857605 427.771362 646.367493 428.670807 645.576904 C 429.696686 644.675049 430.487152 643.505432 431.74234 642.02478 C 428.748718 641.248718 427.055695 640.809814 425.362671 640.370911 C 425.419708 639.960022 425.476715 639.549133 425.533752 639.138306 C 427.556244 638.938049 429.578735 638.737854 433.041779 638.39502 C 431.808014 636.698853 431.145294 634.802917 430.131989 634.592041 C 427.744232 634.095215 425.16156 634.191345 422.718964 634.512756 C 421.992493 634.608398 421.46936 636.249329 420.858215 638.058594 M 438.640167 634.752197 C 430.216461 642.319031 439.891235 644.253296 444.335388 648.786377 C 440.562012 648.786377 438.259277 648.786377 435.956543 648.786377 C 435.640808 649.235168 435.325104 649.684021 435.009399 650.132812 C 436.011322 651.245605 436.810669 652.917542 438.052704 653.367615 C 441.962311 654.783936 446.805878 652.868103 447.757996 649.719727 C 449.092163 645.307983 446.913513 642.865906 442.884094 641.436646 C 442.070129 641.14801 441.567139 639.982544 440.920776 639.221252 C 441.882782 638.865906 442.955353 638.042908 443.786896 638.239563 C 446.731018 638.935669 447.653625 637.885803 447.156128 634.517822 C 444.540771 634.517822 441.962708 634.517822 438.640167 634.752197 M 540.898376 642.874451 C 540.367126 638.831421 538.619873 635.882019 534.054016 635.922791 C 529.757935 635.961182 528.034668 638.822815 527.402039 642.596008 C 526.405457 648.540222 529.049011 653.354919 533.544312 653.889832 C 537.883667 654.406189 540.867432 650.311584 540.898376 642.874451 M 777.846924 315.726318 C 777.846924 320.184174 777.846924 324.642029 777.846924 329.616211 C 779.791382 329.519958 781.314941 329.44455 783.218445 329.350311 C 783.218445 323.594543 783.218445 318.363708 783.218445 313.177246 C 785.050171 312.992889 786.473633 312.849609 788.147827 312.681122 C 788.050171 311.072479 787.973938 309.816101 787.888 308.399628 C 782.830322 308.399628 778.071411 308.399628 772.994385 308.399628 C 772.994385 309.917023 772.994385 311.306549 772.994385 311.748138 C 775.009705 313.0354 776.426758 313.940552 777.846924 315.726318 M 509.043457 647.094116 C 508.986542 645.098816 509.207794 643.047058 508.816101 641.119751 C 507.940155 636.809631 503.338043 634.559998 499.518127 636.578247 C 494.902313 639.01709 495.018921 643.610718 496.035339 647.539307 C 496.651611 649.921082 499.244629 652.893005 501.510986 653.498535 C 505.296875 654.510071 507.953674 651.793518 509.043457 647.094116 M 490.78656 644.296692 C 492.237946 637.843994 489.173248 634.619751 482.878235 636.167725 C 481.861328 636.417725 481.079224 637.622681 480.188568 638.38623 C 481.215057 638.979126 482.194916 639.685608 483.281738 640.131409 C 484.270325 640.536987 486.197784 640.516052 486.27066 640.934265 C 486.470093 642.078735 486.218567 643.549988 485.592194 644.542664 C 483.859528 647.288452 481.84494 649.856445 479.603699 652.963501 C 484.11322 652.963501 487.993896 652.963501 491.874603 652.963501 C 492.161469 652.591064 492.448334 652.218628 492.735229 651.846191 C 491.350891 650.567017 489.966583 649.287842 488.591705 648.017456 C 489.092804 647.201111 489.781891 646.078613 490.78656 644.296692 M 513.088745 639.247009 C 514.124451 640.850464 515.160095 642.453918 516.610596 644.699585 C 516.610596 645.332153 516.610596 646.954529 516.610596 648.576965 C 516.344666 648.413147 516.078674 648.249329 515.812744 648.085449 C 514.789429 649.483337 513.766113 650.881165 512.267273 652.928589 C 517.396179 652.928589 520.998596 652.928589 524.601074 652.928589 C 525.236023 652.68634 525.870911 652.444031 526.505859 652.201782 C 518.787537 648.31311 522.236084 641.684326 520.925354 635.832764 C 518.191528 636.960022 515.918518 637.897278 513.088745 639.247009 M 460.198395 639.009949 C 461.501587 638.172485 462.804779 637.335022 464.107941 636.497559 C 462.747925 635.769897 461.443726 634.589172 460.015747 634.413269 C 457.405609 634.091675 454.712708 634.248657 452.075775 634.466125 C 451.366425 634.524597 450.154541 635.565613 450.194 636.076904 C 450.264587 636.990967 450.916779 638.148438 451.686249 638.641113 C 452.49646 639.159973 453.728882 639.019531 454.967773 639.194031 C 454.967773 644.075378 454.967773 648.519958 454.967773 652.916992 C 458.473206 654.247742 459.772308 653.124634 459.615509 649.687439 C 459.464386 646.374756 459.593658 643.049316 460.198395 639.009949 z" stroke-linecap="round" />
</g>
		<g transform="matrix(1 0 0 1 132.75 -57.94)" id="Layer_1"  >
<path style="stroke: none; stroke-width: 1; stroke-dasharray: none; stroke-linecap: butt; stroke-dashoffset: 0; stroke-linejoin: miter; stroke-miterlimit: 4; fill: rgb(250,250,250); fill-rule: nonzero; opacity: 1;"  transform=" translate(-612.75, -422.06)" d="M 699.845642 325.155853 C 688.873779 338.86557 688.087891 355.272278 688.532715 371.576019 C 689.462463 405.653168 701.397766 436.919464 714.649353 467.74527 C 714.826599 468.157593 715.186951 468.49115 716.168701 469.813873 C 717.511047 459.437927 716.794006 450.222229 714.184875 441.126068 C 713.545349 438.896484 712.964722 436.471466 711.646362 434.65097 C 708.566101 430.397552 710.314209 427.727234 713.564209 424.601593 C 721.438843 417.028168 721.280762 416.908508 716.524048 407.254028 C 714.09906 402.332153 711.943359 397.272858 709.38916 392.421387 C 707.968384 389.722778 708.364746 387.905487 710.60199 385.934937 C 716.966431 380.329315 723.197571 374.572449 730.088318 368.324585 C 745.034424 397.808197 759.572083 427.442078 779.9021 454.907288 C 789.419495 449.945557 799.171509 444.861542 808.923462 439.777496 C 809.228149 440.123322 809.532837 440.469147 809.837524 440.814941 C 801.777466 448.133514 793.717346 455.452087 785.422668 462.983673 C 792.703247 470.926605 800.063599 479.707703 810.455688 485.154999 C 820.14502 490.233917 824.375549 489.86087 832.600159 483.166107 C 833.549744 482.393188 834.553711 481.687012 836.368103 481.642303 C 834.827698 483.852692 833.630859 486.44281 831.684204 488.204193 C 825.163818 494.103882 818.474304 499.82843 811.661438 505.389526 C 805.300903 510.581329 798.036072 510.280579 790.869324 507.56424 C 780.569824 503.660461 773.047058 496.082306 766.348511 487.682556 C 757.557068 476.658295 757.669617 476.685364 744.634094 481.116882 C 738.820557 483.093262 732.771729 484.388916 726.992859 486.450836 C 724.533875 487.328217 722.070496 489.003326 720.335938 490.960144 C 713.069702 499.157471 706.12677 507.640656 698.933594 515.904358 C 697.902039 517.089417 696.149597 517.646973 694.043274 517.634583 C 695.720215 515.288208 697.397095 512.941833 699.358459 510.197449 C 681.245483 494.03894 663.161011 477.905853 644.565186 461.374329 C 643.803894 461.48584 643.553894 461.995728 643.303955 462.505615 C 643.579529 469.308411 644.173706 476.120697 643.972046 482.909332 C 643.892639 485.582001 642.737427 488.94751 640.862183 490.71109 C 634.260681 496.919769 627.134094 502.57016 619.80127 508.775482 C 619.460693 507.096375 619.21283 505.874451 618.962708 504.641571 C 618.545044 504.641571 618.163818 504.519775 617.973389 504.659027 C 606.975159 512.699707 596.163757 510.046997 586.835815 502.450867 C 578.935669 496.017487 572.314758 487.947266 565.52478 480.251068 C 563.044312 477.439453 561.278931 476.643799 557.599854 478.051666 C 549.548828 481.132507 541.319214 483.852356 532.984131 486.039917 C 528.917847 487.107117 526.466309 489.334198 523.97876 492.391785 C 517.492554 500.364227 510.737183 508.120911 503.95639 515.847107 C 502.903687 517.04657 501.152435 517.632996 498.743256 519.100403 C 504.797211 508.980286 510.160797 500.014221 516.166443 489.974854 C 506.054535 490.657562 497.198212 489.492493 490.45813 497.504974 C 486.421417 502.30368 481.325195 506.220337 476.641693 510.463348 C 470.631317 515.908325 465.328705 516.142151 458.675415 511.380402 C 450.260834 505.358185 446.105988 496.575867 442.72818 486.503723 C 442.184448 485.554169 441.870697 485.240662 441.556946 484.927155 C 441.513641 485.776337 441.470337 486.625488 441.427032 487.47467 C 443.356415 495.215607 439.323029 499.884064 433.642944 504.421692 C 425.349152 511.047241 425.6008 511.356537 417.233002 504.588989 C 408.178131 497.265747 399.114441 489.957764 393.47876 479.403992 C 386.270538 465.905548 388.095032 451.408356 398.467407 440.266296 C 404.115173 434.199432 409.802094 428.169006 416.47168 422.579559 C 407.531647 438.474274 410.529358 452.536682 421.088837 465.795715 C 421.994141 457.136261 423.240112 448.445007 419.3797 440.142883 C 417.687775 436.504242 418.045898 433.833008 421.356842 431.056671 C 427.431824 425.962433 433.094971 420.377014 439.494629 414.475586 C 441.210358 418.711792 442.428497 422.45047 444.179779 425.920044 C 452.99118 443.377289 461.890442 460.790924 470.904907 478.144012 C 472.104309 480.45285 474.136475 482.329102 476.22467 484.8927 C 477.148224 485.453888 477.630127 485.528015 478.112 485.602173 C 477.914978 484.913208 477.717926 484.224213 477.520874 483.535248 C 472.937225 468.78302 468.68811 453.915497 463.658142 439.317047 C 460.001892 428.705627 457.84024 418.120605 460.180634 407.027618 C 460.77948 404.18927 461.831573 400.973297 463.758301 398.974762 C 470.197266 392.295959 477.127045 386.090302 483.829926 379.740295 C 483.826172 379.692413 484.054688 380.29303 483.881317 380.736603 C 479.93045 390.845917 480.656982 401.086975 483.706268 411.117584 C 488.203583 425.911346 493.503387 440.462585 497.929077 455.276154 C 500.22406 462.957886 501.374756 470.981537 503.096985 479.108307 C 507.09903 474.141144 511.758942 468.139282 520.691772 470.601379 C 522.778564 462.206024 522.108704 454.291382 520.398987 446.539886 C 519.301025 441.561829 516.912476 436.880554 515.503174 431.951691 C 515.084167 430.48645 515.690125 428.462067 516.43573 427.005798 C 517.161072 425.588959 518.653992 424.558685 519.83252 423.381256 C 526.138367 417.081207 526.153381 417.077728 522.42865 409.202301 C 519.727905 403.492035 517.064209 397.762085 514.230408 392.118011 C 513.017212 389.70166 513.158875 388.065125 515.353149 386.160889 C 521.876953 380.499329 528.178955 374.582306 535.103455 368.277283 C 549.910034 397.92514 564.641724 427.493713 584.829468 454.961884 C 593.47168 450.447083 602.245239 445.863678 611.086792 441.244781 C 609.791016 431.442261 604.316101 424.439453 597.124634 416.995026 C 604.690552 409.780426 611.998291 402.812439 619.305542 395.844055 C 622.206299 393.077789 624.4953 394.302307 626.978394 396.694427 C 640.510681 409.731049 654.134705 422.672455 668.161682 436.087708 C 668.899475 435.866241 669.202698 435.203613 669.505981 434.541016 C 667.427429 419.452271 664.407288 404.419281 663.50946 389.26062 C 662.396912 370.477661 668.910645 353.715637 681.47937 339.540497 C 685.758057 334.715057 690.280945 330.106232 695.320923 325.241364 C 696.595459 325.027069 697.241272 324.969879 698.368469 325.039948 C 699.181763 325.163422 699.513672 325.159637 699.845642 325.155853 M 592.305176 465.20166 C 599.847656 473.2341 607.050354 481.687164 618.67334 486.65152 C 616.573914 471.719757 614.612732 457.771362 612.650757 443.816895 C 604.952148 449.988068 597.974792 455.501251 591.167725 461.217194 C 590.713806 461.598389 591.551758 463.518066 592.305176 465.20166 M 550.865906 459.54657 C 548.504456 455.965118 546.142944 452.383667 543.385803 448.202148 C 541.486511 455.401917 539.861816 461.560516 538.013977 468.565125 C 543.684204 467.304596 548.733337 466.182098 554.170349 464.973389 C 552.973572 462.962189 552.130249 461.544891 550.865906 459.54657 M 734.594788 462.852295 C 734.133118 464.400787 733.671387 465.949249 732.898193 468.542328 C 738.683105 467.287994 743.740784 466.191315 749.358948 464.973145 C 745.614502 459.19812 742.220703 453.963776 738.358459 448.007019 C 736.999146 453.445404 735.919739 457.764008 734.594788 462.852295 z" stroke-linecap="round" />
</g>
		<g transform="matrix(1 0 0 1 -197.52 -28.27)" id="Layer_1"  >
<path style="stroke: none; stroke-width: 1; stroke-dasharray: none; stroke-linecap: butt; stroke-dashoffset: 0; stroke-linejoin: miter; stroke-miterlimit: 4; fill: rgb(250,250,250); fill-rule: nonzero; opacity: 1;"  transform=" translate(-282.48, -451.73)" d="M 228.6521 520.538086 C 228.560059 519.136475 228.811554 517.600769 228.324677 516.353271 C 220.534531 496.392487 212.653061 476.467346 204.771637 456.542267 C 204.55127 455.985138 204.101013 455.518921 203.379654 454.449493 C 202.56572 459.140167 201.35907 463.147522 201.284821 467.175781 C 201.156357 474.144562 197.786179 478.846222 192.679047 483.112213 C 186.824173 488.002838 181.437866 493.454407 175.358582 499.118225 C 168.604767 490.060089 162.045929 481.263428 154.884064 471.657959 C 154.519867 474.075745 154.048218 475.37381 154.183273 476.605316 C 155.119644 485.144531 150.987885 490.950958 144.689255 496.115967 C 139.341125 500.501465 134.621063 505.652924 128.542877 511.505615 C 128.903244 504.869751 129.135513 499.618591 129.48291 494.375031 C 130.619049 477.225525 131.221909 460.080872 127.045212 443.219269 C 126.06488 439.261627 123.772247 435.645233 122.489594 431.738495 C 121.961861 430.131073 121.755966 427.431488 122.683838 426.488922 C 130.022934 419.033569 137.671066 411.882477 145.729736 404.152893 C 157.457916 418.940643 168.870819 433.330872 180.894531 448.491272 C 181.194992 445.442352 181.549149 443.266846 181.602722 441.083984 C 182.096436 420.960815 183.383469 400.795197 177.748383 381.035553 C 177.249268 379.2854 177.746765 376.399536 178.941757 375.158508 C 185.750412 368.087616 192.902512 361.346771 199.974701 354.531982 C 200.393906 354.128021 201.133179 354.056213 202.427994 353.559662 C 204.963531 360.557312 207.47731 367.350067 209.89003 374.178558 C 220.68689 404.73584 231.569382 435.263916 242.106018 465.910828 C 243.628204 470.338348 245.9561 471.351013 249.742722 470.159088 C 251.060791 469.744202 252.847626 468.134003 252.946716 466.946686 C 253.928894 455.179596 253.074005 443.579834 247.454926 432.918701 C 245.873413 429.918121 246.310135 428.281677 248.653625 426.152496 C 251.721298 423.365387 254.404343 420.154968 257.615997 416.740601 C 254.119003 409.349396 250.631882 401.273712 246.501572 393.541595 C 244.380844 389.571472 245.365005 387.373901 248.466492 384.751526 C 254.534317 379.621094 260.313263 374.148956 266.566772 368.497467 C 268.728333 372.519928 270.883148 376.529907 273.1586 380.764313 C 278.294067 375.703491 283.3367 370.809692 288.292511 365.829468 C 293.455719 360.640869 293.389008 360.647675 299.135162 364.654205 C 319.102386 378.576538 340.38327 389.672791 364.603027 394.040161 C 390.69873 398.745819 415.96344 396.727844 439.716827 383.837067 C 440.629303 383.341858 441.711334 383.159088 442.910797 383.279999 C 426.388641 404.118103 404.411346 414.527679 378.068207 417.329498 C 379.575806 426.258514 381.676025 435.134766 382.466736 444.126221 C 384.083801 462.514648 385.304077 480.951874 386.090973 499.39447 C 386.604187 511.423004 381.922668 521.922913 373.560547 530.493774 C 367.534363 536.670349 360.991821 542.346252 354.611481 548.170837 C 353.621094 549.074951 352.265747 549.579224 350.698181 549.893066 C 361.224518 541.772095 364.06131 530.574951 364.13974 518.231384 C 364.191956 510.011383 364.149628 501.790771 364.149628 493.135498 C 358.635437 497.422516 353.719025 501.237122 348.810974 505.062378 C 341.699036 510.605286 334.001251 510.301453 326.179688 507.073853 C 316.987671 503.280701 310.230591 496.377533 303.974487 488.939819 C 301.298035 485.757874 298.709869 482.498108 296.176117 479.201019 C 294.523438 477.050507 292.933105 476.747986 290.202332 477.712555 C 281.128052 480.917816 271.919586 483.760895 262.695496 486.51828 C 256.303223 488.429108 253.405838 493.926605 256.554962 499.573212 C 259.665253 505.150208 263.254456 510.460144 267.531281 517.328918 C 261.431091 523.141296 254.214584 530.114624 246.875381 536.956238 C 244.391159 539.272034 241.541794 539.147583 239.546158 536.36554 C 237.137589 533.007812 235.199326 529.315308 233.002716 525.80188 C 232.00296 524.202759 230.871658 522.685791 229.331024 520.973877 C 228.862 520.816162 228.6521 520.538086 228.6521 520.538086 M 344.181946 441.146637 C 344.364746 441.294647 344.547546 441.442688 344.395569 442.174683 C 337.057953 449.067963 329.720367 455.961273 322.206116 463.020538 C 329.406403 471.601532 337.353485 480.278961 348.088257 485.783325 C 353.039642 488.322205 358.224823 489.476471 365.13501 487.146545 C 361.234924 468.806305 357.532715 450.778198 353.477356 432.829865 C 352.63208 429.088745 352.908936 426.460602 356.092133 424.139191 C 358.272156 422.549438 360.144806 420.538269 362.927887 418.014465 C 330.310425 415.919312 302.273743 404.360321 276.478424 386.605499 C 276.916748 388.600311 277.687592 389.835999 278.306152 391.143707 C 288.139709 411.932983 300.512299 431.230011 312.881256 450.548889 C 315.225769 454.210754 317.18631 454.753204 320.779297 452.772797 C 328.338379 448.606201 336.03186 444.683472 344.181946 441.146637 M 279.114105 466.43158 C 281.17334 465.944214 283.232544 465.456848 285.854156 464.836365 C 282.164032 459.190063 278.773071 454.001526 274.949982 448.151794 C 273.074463 455.433197 271.495422 461.56366 269.736176 468.393677 C 272.929077 467.721466 275.610718 467.156891 279.114105 466.43158 z" stroke-linecap="round" />
</g>
		<g transform="matrix(1 0 0 1 -169.46 120.09)" id="Layer_1"  >
<path style="stroke: none; stroke-width: 1; stroke-dasharray: none; stroke-linecap: butt; stroke-dashoffset: 0; stroke-linejoin: miter; stroke-miterlimit: 4; fill: rgb(240,240,240); fill-rule: nonzero; opacity: 1;"  transform=" translate(-310.54, -600.09)" d="M 296.517883 596.705811 C 296.251068 593.137329 296.056976 590.030029 295.872986 587.084473 C 300.973145 585.074646 304.127319 586.282715 305.959229 591.166931 C 306.919098 593.726257 308.561462 596.029602 310.422119 599.403076 C 311.594788 595.874573 312.72226 593.351379 313.250702 590.708496 C 314.303345 585.44397 317.307129 583.636963 322.781036 584.873413 C 323.569183 594.195862 324.362427 603.578796 325.20694 613.567993 C 322.647644 613.74707 320.414429 613.90332 317.893188 614.079651 C 317.489166 610.278931 317.12262 606.830872 316.744568 603.27478 C 315.215485 605.622314 314.07608 609.328308 312.087128 609.86084 C 310.195251 610.36731 307.415619 607.558105 305.223022 606.317993 C 305.223022 608.473328 305.223022 611.667236 305.223022 615.149353 C 302.902008 615.323914 300.813446 615.481018 298.193451 615.678101 C 297.642426 609.314209 297.116516 603.240601 296.517883 596.705811 z" stroke-linecap="round" />
</g>
		<g transform="matrix(1 0 0 1 145.96 119.14)" id="Layer_1"  >
<path style="stroke: none; stroke-width: 1; stroke-dasharray: none; stroke-linecap: butt; stroke-dashoffset: 0; stroke-linejoin: miter; stroke-miterlimit: 4; fill: rgb(237,237,237); fill-rule: nonzero; opacity: 1;"  transform=" translate(-625.96, -599.14)" d="M 637.65155 595.583801 C 636.079956 598.743225 634.604065 601.507874 632.599487 605.262939 C 633.857727 607.139099 635.924744 610.221252 637.99176 613.303406 C 637.786621 613.768921 637.581482 614.234375 637.376404 614.69989 C 634.360413 613.780945 630.819702 613.547485 628.474854 611.752014 C 626.088745 609.924988 624.880432 606.559814 622.34906 602.607727 C 621.901001 606.901062 621.618042 609.612244 621.312195 612.542297 C 618.879272 612.542297 616.670105 612.542297 613.920227 612.542297 C 614.58844 602.821838 615.232971 593.446472 615.911316 583.579224 C 620.170654 583.773438 624.276978 583.712402 628.317017 584.200439 C 635.153259 585.026245 637.586975 588.044983 637.65155 595.583801 M 626.254333 597.721497 C 627.624146 596.480957 630.28418 595.057739 630.138855 594.031677 C 629.531677 589.74231 625.897461 591.337769 621.800842 590.376221 C 623.920227 593.396973 620.090271 597.104004 626.254333 597.721497 z" stroke-linecap="round" />
</g>
		<g transform="matrix(1 0 0 1 174.69 120.93)" id="Layer_1"  >
<path style="stroke: none; stroke-width: 1; stroke-dasharray: none; stroke-linecap: butt; stroke-dashoffset: 0; stroke-linejoin: miter; stroke-miterlimit: 4; fill: rgb(239,239,239); fill-rule: nonzero; opacity: 1;"  transform=" translate(-654.69, -600.93)" d="M 658.728027 604.671021 C 656.276367 604.47821 654.304504 604.324707 652.355652 604.173035 C 651.647766 608.209778 651.647766 608.209778 664.129578 609.360291 C 664.027649 611.5 663.923706 613.682373 663.798645 616.307617 C 656.91217 615.752747 650.375061 615.226074 643.342773 614.659424 C 644.196777 604.813293 645.020569 595.315613 645.867188 585.55426 C 652.701599 586.107544 659.11145 586.626465 666.046143 587.187866 C 665.915283 589.472778 665.797119 591.535583 665.648499 594.130554 C 661.434326 593.802612 657.524414 593.498352 653.637634 593.195923 C 652.474854 596.590759 652.474854 596.590759 664.062805 598.864868 C 663.946716 600.607239 663.828125 602.388367 663.673523 604.710266 C 662.070679 604.710266 660.639221 604.710266 658.728027 604.671021 z" stroke-linecap="round" />
</g>
		<g transform="matrix(1 0 0 1 36.48 113.71)" id="Layer_1"  >
<path style="stroke: none; stroke-width: 1; stroke-dasharray: none; stroke-linecap: butt; stroke-dashoffset: 0; stroke-linejoin: miter; stroke-miterlimit: 4; fill: rgb(242,242,242); fill-rule: nonzero; opacity: 1;"  transform=" translate(-516.48, -593.71)" d="M 512.786133 580.377075 C 512.671204 585.838074 512.59314 590.829285 512.394897 595.815735 C 512.275574 598.818176 512.26001 601.807068 516.247375 601.994019 C 520.13208 602.176147 520.742493 599.457153 520.706909 596.29364 C 520.645264 590.812561 520.689819 585.330322 520.689819 579.530884 C 523.380554 579.530884 525.625854 579.530884 527.93573 579.530884 C 527.93573 586.646973 528.366333 593.764954 527.795044 600.801575 C 527.363586 606.11554 521.656921 609.312683 515.231201 608.835266 C 509.220215 608.388672 504.999695 604.398621 504.911438 598.836182 C 504.80896 592.379028 504.887543 585.919128 504.887543 578.54718 C 507.902191 579.066406 510.33728 579.485779 512.786133 580.377075 z" stroke-linecap="round" />
</g>
		<g transform="matrix(1 0 0 1 116.12 116.9)" id="Layer_1"  >
<path style="stroke: none; stroke-width: 1; stroke-dasharray: none; stroke-linecap: butt; stroke-dashoffset: 0; stroke-linejoin: miter; stroke-miterlimit: 4; fill: rgb(242,242,242); fill-rule: nonzero; opacity: 1;"  transform=" translate(-596.12, -596.9)" d="M 594.062378 604.860718 C 598.523865 605.325806 599.747559 603.055664 599.854065 599.50061 C 600.0177 594.03772 600.315491 588.578857 600.567932 582.85553 C 603.218506 582.85553 605.450867 582.85553 608.269714 582.85553 C 607.814514 590.066589 607.636169 597.017029 606.854248 603.898926 C 606.288025 608.881592 600.729248 612.187744 594.678223 611.798218 C 588.422363 611.39563 583.980103 607.690735 583.971985 602.156738 C 583.962341 595.518005 584.526672 588.878479 584.854919 581.976501 C 587.449951 581.976501 589.815308 581.976501 592.501709 581.976501 C 592.100403 587.787537 591.484985 593.245056 591.470215 598.704224 C 591.464783 600.733398 592.866089 602.766235 594.062378 604.860718 z" stroke-linecap="round" />
</g>
		<g transform="matrix(1 0 0 1 -31.76 114.03)" id="Layer_1"  >
<path style="stroke: none; stroke-width: 1; stroke-dasharray: none; stroke-linecap: butt; stroke-dashoffset: 0; stroke-linejoin: miter; stroke-miterlimit: 4; fill: rgb(236,236,236); fill-rule: nonzero; opacity: 1;"  transform=" translate(-448.24, -594.03)" d="M 459.87915 595.807556 C 460.362946 601.015259 458.877991 604.908142 454.538452 607.152954 C 450.123535 609.43689 445.360229 609.748657 441.289581 606.714722 C 439.230988 605.18042 437.051819 602.427551 436.841644 600.05603 C 436.244537 593.317444 436.632202 586.491577 436.632202 579.324097 C 438.747101 579.324097 440.988281 579.324097 444.006104 579.324097 C 444.006104 585.109436 444.097656 591.048462 443.968201 596.982544 C 443.901672 600.032104 445.095764 601.830566 448.154999 601.875061 C 451.378326 601.921997 452.308838 599.794434 452.288391 596.919556 C 452.24704 591.103882 452.276093 585.287781 452.276093 579.134155 C 454.475647 579.134155 456.708862 579.134155 459.879028 579.134155 C 459.879028 584.515198 459.879028 589.926941 459.87915 595.807556 z" stroke-linecap="round" />
</g>
		<g transform="matrix(1 0 0 1 -136.55 118.12)" id="Layer_1"  >
<path style="stroke: none; stroke-width: 1; stroke-dasharray: none; stroke-linecap: butt; stroke-dashoffset: 0; stroke-linejoin: miter; stroke-miterlimit: 4; fill: rgb(237,237,237); fill-rule: nonzero; opacity: 1;"  transform=" translate(-343.45, -598.12)" d="M 353.81073 611.57312 C 351.13974 612.067139 348.976624 612.2229 348.433044 609.219116 C 347.833771 605.907349 345.451996 606.420227 343.081635 606.42804 C 340.547394 606.436401 339.240326 607.242065 338.73584 609.940918 C 337.744598 615.243896 333.522247 612.037598 330.05484 613.386841 C 332.979187 602.87146 335.668396 593.201599 338.312683 583.693298 C 343.443024 581.625671 345.956329 583.492126 347.689636 588.331909 C 350.142853 595.181763 353.160065 601.847595 356.263367 608.438049 C 357.577789 611.229431 356.615723 611.631409 353.81073 611.57312 z" stroke-linecap="round" />
</g>
		<g transform="matrix(1 0 0 1 -85.7 115.6)" id="Layer_1"  >
<path style="stroke: none; stroke-width: 1; stroke-dasharray: none; stroke-linecap: butt; stroke-dashoffset: 0; stroke-linejoin: miter; stroke-miterlimit: 4; fill: rgb(236,236,236); fill-rule: nonzero; opacity: 1;"  transform=" translate(-394.3, -595.6)" d="M 396.65271 581.061646 C 400.506592 590.40564 404.125397 599.441711 407.924744 608.928589 C 403.876434 608.788147 399.660645 611.286011 398.153259 605.074768 C 397.595428 602.776367 390.272675 603.259949 389.919678 605.627319 C 389.025055 611.627075 384.838043 609.791382 380.669098 610.105042 C 383.529938 600.547363 386.015594 591.338013 389.268921 582.408264 C 389.725525 581.154907 393.941742 581.271301 396.65271 581.061646 z" stroke-linecap="round" />
</g>
		<g transform="matrix(1 0 0 1 8.03 113.39)" id="Layer_1"  >
<path style="stroke: none; stroke-width: 1; stroke-dasharray: none; stroke-linecap: butt; stroke-dashoffset: 0; stroke-linejoin: miter; stroke-miterlimit: 4; fill: rgb(234,234,234); fill-rule: nonzero; opacity: 1;"  transform=" translate(-488.03, -593.39)" d="M 498.378021 583.594116 C 496.762787 587.026489 494.881226 587.71814 491.822998 586.370605 C 486.865631 584.186279 484.792847 585.562561 484.710785 591.103271 C 484.691071 592.434204 484.697571 593.765686 484.702606 595.096924 C 484.72702 601.539124 485.970215 602.165649 491.995667 600.16449 C 493.922302 599.524597 496.47879 600.780884 498.920044 601.199219 C 496.285126 607.016541 491.757568 609.29126 486.149841 608.210144 C 480.285034 607.07959 477.30246 603.734192 477.181732 598.059265 C 477.128662 595.564209 477.326904 593.058228 477.172821 590.57196 C 476.838348 585.176636 478.753143 581.164001 483.985321 579.221375 C 489.534454 577.161194 494.112122 578.547729 498.378021 583.594116 z" stroke-linecap="round" />
</g>
		<g transform="matrix(1 0 0 1 -61.51 114.22)" id="Layer_1"  >
<path style="stroke: none; stroke-width: 1; stroke-dasharray: none; stroke-linecap: butt; stroke-dashoffset: 0; stroke-linejoin: miter; stroke-miterlimit: 4; fill: rgb(240,240,240); fill-rule: nonzero; opacity: 1;"  transform=" translate(-418.49, -594.22)" d="M 408.813171 579.857544 C 416.046844 579.832642 422.850159 579.832642 430.026978 579.832642 C 430.026978 581.44989 430.026978 583.536621 430.026978 586.108276 C 428.032349 586.272095 425.792694 586.456055 423.163757 586.671936 C 423.163757 593.93457 423.163757 601.145081 423.163757 608.614746 C 420.640991 608.614746 418.401703 608.614746 415.99704 608.614746 C 415.635803 601.490234 415.275726 594.389038 414.897461 586.929443 C 412.50528 586.929443 410.263519 586.929443 406.957336 586.929443 C 407.503937 584.227234 407.94339 582.05481 408.813171 579.857544 z" stroke-linecap="round" />
</g>
		<g transform="matrix(1 0 0 1 87.29 114.94)" id="Layer_1"  >
<path style="stroke: none; stroke-width: 1; stroke-dasharray: none; stroke-linecap: butt; stroke-dashoffset: 0; stroke-linejoin: miter; stroke-miterlimit: 4; fill: rgb(242,242,242); fill-rule: nonzero; opacity: 1;"  transform=" translate(-567.29, -594.94)" d="M 570.338013 580.879089 C 573.269836 580.888672 575.742371 580.888672 578.556396 580.888672 C 578.556396 583.398254 578.556396 585.436157 578.556396 587.780518 C 576.11908 587.780518 573.858826 587.780518 570.989319 587.780518 C 570.598755 595.230469 570.221558 602.424866 569.834595 609.806335 C 567.503357 609.806335 565.400391 609.806335 562.919067 609.806335 C 562.919067 602.555969 562.919067 595.367188 562.919067 587.810059 C 560.764099 587.571106 558.529907 587.323364 556.018311 587.044922 C 556.018311 584.893127 556.018311 582.829773 556.018311 580.075684 C 560.755859 580.347046 565.317261 580.608276 570.338013 580.879089 z" stroke-linecap="round" />
</g>
		<g transform="matrix(1 0 0 1 -112.66 115.7)" id="Layer_1"  >
<path style="stroke: none; stroke-width: 1; stroke-dasharray: none; stroke-linecap: butt; stroke-dashoffset: 0; stroke-linejoin: miter; stroke-miterlimit: 4; fill: rgb(239,239,239); fill-rule: nonzero; opacity: 1;"  transform=" translate(-367.34, -595.7)" d="M 359.753967 589.103821 C 353.40152 589.495117 357.355042 584.888367 355.307404 582.265625 C 363.537384 581.806335 370.921478 581.394287 378.842407 580.952209 C 379.0289 583.323425 379.189941 585.370605 379.378235 587.764709 C 376.83786 588.039429 374.596741 588.28186 371.690674 588.59613 C 372.030853 595.825439 372.36322 602.888794 372.718781 610.444946 C 370.278992 610.444946 367.931854 610.444946 365.275818 610.444946 C 364.851715 603.584595 364.423187 596.653076 363.970001 589.322021 C 362.636566 589.237671 361.397217 589.159241 359.753967 589.103821 z" stroke-linecap="round" />
</g>
		<g transform="matrix(1 0 0 1 321.7 -160.41)" id="Layer_1"  >
<path style="stroke: none; stroke-width: 1; stroke-dasharray: none; stroke-linecap: butt; stroke-dashoffset: 0; stroke-linejoin: miter; stroke-miterlimit: 4; fill: rgb(236,236,236); fill-rule: nonzero; opacity: 1;"  transform=" translate(-801.7, -319.59)" d="M 791.681519 325.710388 C 791.843506 320.629425 791.86084 315.955872 792.23114 311.310486 C 792.319824 310.197937 793.587219 308.302582 794.305603 308.305878 C 795.65564 308.311981 797.602051 309.09256 798.225098 310.171844 C 799.612976 312.576172 800.338318 315.362885 801.338867 318.007568 C 805.455444 315.768707 802.497314 307.191956 810.897583 308.322632 C 811.230835 314.574646 811.745422 320.822174 811.718323 327.067383 C 811.713806 328.11261 809.35907 329.147675 807.150085 330.957886 C 806.859131 326.38681 806.683472 323.627686 806.491028 320.604553 C 804.598694 322.4245 803.170288 324.837616 801.360107 325.169647 C 800.176453 325.386719 798.439514 322.587494 796.40979 320.613495 C 796.40979 322.719849 796.729919 324.645294 796.300842 326.386139 C 795.998596 327.61261 794.67865 328.588257 793.81311 329.675903 C 793.097473 328.493317 792.381836 327.31073 791.681519 325.710388 z" stroke-linecap="round" />
</g>
		<g transform="matrix(1 0 0 1 65.29 114.06)" id="Layer_1"  >
<path style="stroke: none; stroke-width: 1; stroke-dasharray: none; stroke-linecap: butt; stroke-dashoffset: 0; stroke-linejoin: miter; stroke-miterlimit: 4; fill: rgb(242,242,242); fill-rule: nonzero; opacity: 1;"  transform=" translate(-545.29, -594.06)" d="M 536.098999 581.660034 C 538.397095 580.590332 540.685425 579.950867 543.359558 579.203613 C 543.359558 587.238342 543.359558 594.263977 543.359558 601.683411 C 547.035522 601.847229 550.614197 602.006775 554.490723 602.179565 C 554.490723 604.463074 554.490723 606.535828 554.490723 608.90686 C 548.317627 608.90686 542.086914 608.90686 536.089172 608.90686 C 536.089172 599.826721 536.089172 590.958496 536.098999 581.660034 z" stroke-linecap="round" />
</g>
		<g transform="matrix(1 0 0 1 -53.05 163.64)" id="Layer_1"  >
<path style="stroke: none; stroke-width: 1; stroke-dasharray: none; stroke-linecap: butt; stroke-dashoffset: 0; stroke-linejoin: miter; stroke-miterlimit: 4; fill: rgb(227,227,227); fill-rule: nonzero; opacity: 1;"  transform=" translate(-426.95, -643.64)" d="M 420.855652 637.620422 C 421.46936 636.249329 421.992493 634.608398 422.718964 634.512756 C 425.16156 634.191345 427.744232 634.095215 430.131989 634.592041 C 431.145294 634.802917 431.808014 636.698853 433.041779 638.39502 C 429.578735 638.737854 427.556244 638.938049 425.533752 639.138306 C 425.476715 639.549133 425.419708 639.960022 425.362671 640.370911 C 427.055695 640.809814 428.748718 641.248718 431.74234 642.02478 C 430.487152 643.505432 429.696686 644.675049 428.670807 645.576904 C 427.771362 646.367493 426.607727 646.857605 425.560791 647.480469 C 426.709595 648.005371 427.822449 648.648743 429.020233 649.012207 C 429.778442 649.24231 430.663269 649.055115 431.815308 649.055115 C 431.987061 650.325317 432.153046 651.552856 432.353973 653.039062 C 428.453735 653.039062 424.873688 653.039062 420.858215 653.039062 C 420.858215 647.924072 420.858215 642.991333 420.855652 637.620422 z" stroke-linecap="round" />
</g>
		<g transform="matrix(1 0 0 1 -38.42 164.18)" id="Layer_1"  >
<path style="stroke: none; stroke-width: 1; stroke-dasharray: none; stroke-linecap: butt; stroke-dashoffset: 0; stroke-linejoin: miter; stroke-miterlimit: 4; fill: rgb(227,227,227); fill-rule: nonzero; opacity: 1;"  transform=" translate(-441.58, -644.18)" d="M 439.012421 634.63501 C 441.962708 634.517822 444.540771 634.517822 447.156128 634.517822 C 447.653625 637.885803 446.731018 638.935669 443.786896 638.239563 C 442.955353 638.042908 441.882782 638.865906 440.920776 639.221313 C 441.567139 639.982544 442.070129 641.14801 442.884094 641.436646 C 446.913513 642.865906 449.092163 645.307983 447.757996 649.719727 C 446.805878 652.868103 441.962311 654.783936 438.052704 653.367615 C 436.810669 652.917542 436.011322 651.245605 435.009399 650.132812 C 435.325104 649.684021 435.640808 649.235168 435.956543 648.786377 C 438.259277 648.786377 440.562012 648.786377 444.335388 648.786377 C 439.891235 644.253296 430.216461 642.319031 439.012421 634.63501 z" stroke-linecap="round" />
</g>
		<g transform="matrix(1 0 0 1 54.06 164.93)" id="Layer_1"  >
<path style="stroke: none; stroke-width: 1; stroke-dasharray: none; stroke-linecap: butt; stroke-dashoffset: 0; stroke-linejoin: miter; stroke-miterlimit: 4; fill: rgb(229,229,229); fill-rule: nonzero; opacity: 1;"  transform=" translate(-534.06, -644.93)" d="M 540.931946 643.290222 C 540.867432 650.311584 537.883667 654.406189 533.544312 653.889832 C 529.049011 653.354919 526.405457 648.540222 527.402039 642.596008 C 528.034668 638.822815 529.757935 635.961182 534.054016 635.922791 C 538.619873 635.882019 540.367126 638.831421 540.931946 643.290222 M 536.181641 643.799805 C 535.674561 642.470947 535.167542 641.142151 534.660461 639.813293 C 534.16864 639.851624 533.676758 639.889893 533.184875 639.928223 C 532.795349 641.393982 531.972046 642.907471 532.126587 644.313416 C 532.317261 646.047363 533.321777 647.691833 533.974548 649.374939 C 534.720398 647.815002 535.466187 646.255127 536.181641 643.799805 z" stroke-linecap="round" />
</g>
		<g transform="matrix(1 0 0 1 300.57 -160.99)" id="Layer_1"  >
<path style="stroke: none; stroke-width: 1; stroke-dasharray: none; stroke-linecap: butt; stroke-dashoffset: 0; stroke-linejoin: miter; stroke-miterlimit: 4; fill: rgb(237,237,237); fill-rule: nonzero; opacity: 1;"  transform=" translate(-780.57, -319.01)" d="M 777.845337 315.286011 C 776.426758 313.940552 775.009705 313.0354 772.994385 311.748138 C 772.994385 311.306549 772.994385 309.917023 772.994385 308.399628 C 778.071411 308.399628 782.830322 308.399628 787.888 308.399628 C 787.973938 309.816101 788.050171 311.072479 788.147827 312.681122 C 786.473633 312.849609 785.050171 312.992889 783.218445 313.177246 C 783.218445 318.363708 783.218445 323.594543 783.218445 329.350311 C 781.314941 329.44455 779.791382 329.519958 777.846924 329.616211 C 777.846924 324.642029 777.846924 320.184174 777.845337 315.286011 z" stroke-linecap="round" />
</g>
		<g transform="matrix(1 0 0 1 22.26 164.77)" id="Layer_1"  >
<path style="stroke: none; stroke-width: 1; stroke-dasharray: none; stroke-linecap: butt; stroke-dashoffset: 0; stroke-linejoin: miter; stroke-miterlimit: 4; fill: rgb(239,239,239); fill-rule: nonzero; opacity: 1;"  transform=" translate(-502.26, -644.77)" d="M 509.017731 647.51416 C 507.953674 651.793518 505.296875 654.510071 501.510986 653.498535 C 499.244629 652.893005 496.651611 649.921082 496.035339 647.539307 C 495.018921 643.610718 494.902313 639.01709 499.518127 636.578247 C 503.338043 634.559998 507.940155 636.809631 508.816101 641.119751 C 509.207794 643.047058 508.986542 645.098816 509.017731 647.51416 M 503.127502 649.34198 C 503.460999 646.744812 503.841614 644.15033 503.98526 641.542664 C 503.992279 641.415527 500.970642 640.951599 500.95517 641.017578 C 500.249298 644.036621 498.462738 647.331848 503.127502 649.34198 z" stroke-linecap="round" />
</g>
		<g transform="matrix(1 0 0 1 6.17 164.37)" id="Layer_1"  >
<path style="stroke: none; stroke-width: 1; stroke-dasharray: none; stroke-linecap: butt; stroke-dashoffset: 0; stroke-linejoin: miter; stroke-miterlimit: 4; fill: rgb(229,229,229); fill-rule: nonzero; opacity: 1;"  transform=" translate(-486.17, -644.37)" d="M 490.628754 644.626343 C 489.781891 646.078613 489.092804 647.201111 488.591705 648.017456 C 489.966583 649.287842 491.350891 650.567017 492.735229 651.846191 C 492.448334 652.218628 492.161469 652.591064 491.874603 652.963501 C 487.993896 652.963501 484.11322 652.963501 479.603699 652.963501 C 481.84494 649.856445 483.859528 647.288452 485.592194 644.542664 C 486.218567 643.549988 486.470093 642.078735 486.27066 640.934265 C 486.197784 640.516052 484.270325 640.536987 483.281738 640.131409 C 482.194916 639.685608 481.215057 638.979126 480.188568 638.38623 C 481.079224 637.622681 481.861328 636.417725 482.878235 636.167725 C 489.173248 634.619751 492.237946 637.843994 490.628754 644.626343 z" stroke-linecap="round" />
</g>
		<g transform="matrix(1 0 0 1 39.39 164.38)" id="Layer_1"  >
<path style="stroke: none; stroke-width: 1; stroke-dasharray: none; stroke-linecap: butt; stroke-dashoffset: 0; stroke-linejoin: miter; stroke-miterlimit: 4; fill: rgb(236,236,236); fill-rule: nonzero; opacity: 1;"  transform=" translate(-519.39, -644.38)" d="M 513.367126 639.040771 C 515.918518 637.897278 518.191528 636.960022 520.925354 635.832764 C 522.236084 641.684326 518.787537 648.31311 526.505859 652.201782 C 525.870911 652.444031 525.236023 652.68634 524.601074 652.928589 C 520.998596 652.928589 517.396179 652.928589 512.267273 652.928589 C 513.766113 650.881165 514.789429 649.483337 515.812744 648.085449 C 516.078674 648.249329 516.344666 648.413147 516.610596 648.576965 C 516.610596 646.954529 516.610596 645.332153 516.610596 644.699585 C 515.160095 642.453918 514.124451 640.850464 513.367126 639.040771 z" stroke-linecap="round" />
</g>
		<g transform="matrix(1 0 0 1 -22.85 163.85)" id="Layer_1"  >
<path style="stroke: none; stroke-width: 1; stroke-dasharray: none; stroke-linecap: butt; stroke-dashoffset: 0; stroke-linejoin: miter; stroke-miterlimit: 4; fill: rgb(222,222,222); fill-rule: nonzero; opacity: 1;"  transform=" translate(-457.15, -643.85)" d="M 459.899048 639.369751 C 459.593658 643.049316 459.464386 646.374756 459.615509 649.687439 C 459.772308 653.124634 458.473206 654.247742 454.967773 652.916992 C 454.967773 648.519958 454.967773 644.075378 454.967773 639.194031 C 453.728882 639.019531 452.49646 639.159973 451.686249 638.641113 C 450.916779 638.148438 450.264587 636.990967 450.194 636.076904 C 450.154541 635.565613 451.366425 634.524597 452.075775 634.466125 C 454.712708 634.248657 457.405609 634.091675 460.015747 634.413269 C 461.443726 634.589172 462.747925 635.769897 464.107971 636.497559 C 462.804779 637.335022 461.501587 638.172485 459.899048 639.369751 z" stroke-linecap="round" />
</g>
		<g transform="matrix(1 0 0 1 227.59 -164.94)" id="Layer_1"  >
<path style="stroke: none; stroke-width: 1; stroke-dasharray: none; stroke-linecap: butt; stroke-dashoffset: 0; stroke-linejoin: miter; stroke-miterlimit: 4; fill: rgb(214,214,214); fill-rule: nonzero; opacity: 1;"  transform=" translate(-707.59, -315.06)" d="M 700.962463 319.983459 C 705.00238 316.484497 709.042297 312.985565 713.082214 309.486633 C 713.457642 309.888672 713.833069 310.29071 714.208557 310.692749 C 711.018738 314.064148 707.828979 317.435547 704.095215 320.625488 C 702.688354 320.290527 701.825439 320.136993 700.962463 319.983459 z" stroke-linecap="round" />
</g>
		<g transform="matrix(1 0 0 1 221.83 -157.93)" id="Layer_1"  >
<path style="stroke: none; stroke-width: 1; stroke-dasharray: none; stroke-linecap: butt; stroke-dashoffset: 0; stroke-linejoin: miter; stroke-miterlimit: 4; fill: rgb(250,250,250); fill-rule: nonzero; opacity: 1;"  transform=" translate(-701.83, -322.07)" d="M 700.737488 320.056335 C 701.825439 320.136993 702.688354 320.290527 703.765381 320.702332 C 702.96936 322.106628 701.959351 323.252594 700.558716 324.078217 C 700.067261 323.460876 699.966431 323.163879 699.889893 322.53418 C 699.920471 321.75531 699.926941 321.309204 699.93335 320.863068 C 700.051575 320.559357 700.244629 320.314728 700.737488 320.056335 z" stroke-linecap="round" />
</g>
		<g transform="matrix(1 0 0 1 218.64 -155.99)" id="Layer_1"  >
<path style="stroke: none; stroke-width: 1; stroke-dasharray: none; stroke-linecap: butt; stroke-dashoffset: 0; stroke-linejoin: miter; stroke-miterlimit: 4; fill: rgb(250,250,250); fill-rule: nonzero; opacity: 1;"  transform=" translate(-698.64, -324.01)" d="M 697.076721 323.235138 C 697.076721 323.235138 697.148438 322.880829 697.689331 322.90274 C 698.775391 322.905396 699.320557 322.886169 699.865662 322.866913 C 699.966431 323.163879 700.067261 323.460876 700.201294 324.228088 C 700.227478 324.894348 700.139771 325.0383 699.908447 325.143005 C 699.513672 325.159637 699.181763 325.163422 698.291016 324.82309 C 697.513611 324.064362 697.295166 323.64975 697.076721 323.235138 z" stroke-linecap="round" />
</g>
		<g transform="matrix(1 0 0 1 216.72 -155.78)" id="Layer_1"  >
<path style="stroke: none; stroke-width: 1; stroke-dasharray: none; stroke-linecap: butt; stroke-dashoffset: 0; stroke-linejoin: miter; stroke-miterlimit: 4; fill: rgb(214,214,214); fill-rule: nonzero; opacity: 1;"  transform=" translate(-696.72, -324.22)" d="M 696.841309 323.364258 C 697.295166 323.64975 697.513611 324.064362 697.80957 324.695831 C 697.241272 324.969879 696.595459 325.027069 695.623169 325.072632 C 695.733093 324.538452 696.169495 324.0159 696.841309 323.364258 z" stroke-linecap="round" />
</g>
		<g transform="matrix(1 0 0 1 218.87 -158.13)" id="Layer_1"  >
<path style="stroke: none; stroke-width: 1; stroke-dasharray: none; stroke-linecap: butt; stroke-dashoffset: 0; stroke-linejoin: miter; stroke-miterlimit: 4; fill: rgb(214,214,214); fill-rule: nonzero; opacity: 1;"  transform=" translate(-698.87, -321.87)" d="M 699.889893 322.53418 C 699.320557 322.886169 698.775391 322.905396 697.838379 322.800446 C 698.061096 322.090637 698.67572 321.505035 699.611816 320.891266 C 699.926941 321.309204 699.920471 321.75531 699.889893 322.53418 z" stroke-linecap="round" />
</g>
		<g transform="matrix(1 0 0 1 -251.88 41.15)" id="Layer_1"  >
<path style="stroke: none; stroke-width: 1; stroke-dasharray: none; stroke-linecap: butt; stroke-dashoffset: 0; stroke-linejoin: miter; stroke-miterlimit: 4; fill: rgb(250,250,250); fill-rule: nonzero; opacity: 1;"  transform=" translate(-228.12, -521.15)" d="M 228.971466 520.95166 C 228.474472 521.287048 227.868011 521.486877 227.261536 521.686707 C 227.522934 521.376221 227.784332 521.065796 228.348907 520.646729 C 228.6521 520.538086 228.862 520.816162 228.971466 520.95166 z" stroke-linecap="round" />
</g>
		<g transform="matrix(1 0 0 1 124.86 -14.77)" id="Layer_1"  >
<path style="stroke: none; stroke-width: 1; stroke-dasharray: none; stroke-linecap: butt; stroke-dashoffset: 0; stroke-linejoin: miter; stroke-miterlimit: 4; fill: rgb(10,10,10); fill-rule: nonzero; opacity: 1;"  transform=" translate(-604.86, -465.23)" d="M 592.046997 464.961914 C 591.551758 463.518066 590.713806 461.598389 591.167725 461.217194 C 597.974792 455.501251 604.952148 449.988068 612.650757 443.816895 C 614.612732 457.771362 616.573914 471.719757 618.67334 486.65152 C 607.050354 481.687164 599.847656 473.2341 592.046997 464.961914 z" stroke-linecap="round" />
</g>
		<g transform="matrix(1 0 0 1 66.09 -21.62)" id="Layer_1"  >
<path style="stroke: none; stroke-width: 1; stroke-dasharray: none; stroke-linecap: butt; stroke-dashoffset: 0; stroke-linejoin: miter; stroke-miterlimit: 4; fill: rgb(22,22,22); fill-rule: nonzero; opacity: 1;"  transform=" translate(-546.09, -458.38)" d="M 551.076416 459.837067 C 552.130249 461.544891 552.973572 462.962189 554.170349 464.973389 C 548.733337 466.182098 543.684204 467.304596 538.013977 468.565125 C 539.861816 461.560516 541.486511 455.401917 543.385803 448.202148 C 546.142944 452.383667 548.504456 455.965118 551.076416 459.837067 z" stroke-linecap="round" />
</g>
		<g transform="matrix(1 0 0 1 261.13 -21.73)" id="Layer_1"  >
<path style="stroke: none; stroke-width: 1; stroke-dasharray: none; stroke-linecap: butt; stroke-dashoffset: 0; stroke-linejoin: miter; stroke-miterlimit: 4; fill: rgb(22,22,22); fill-rule: nonzero; opacity: 1;"  transform=" translate(-741.13, -458.27)" d="M 734.717529 462.467468 C 735.919739 457.764008 736.999146 453.445404 738.358459 448.007019 C 742.220703 453.963776 745.614502 459.19812 749.358948 464.973145 C 743.740784 466.191315 738.683105 467.287994 732.898193 468.542328 C 733.671387 465.949249 734.133118 464.400787 734.717529 462.467468 z" stroke-linecap="round" />
</g>
		<g transform="matrix(1 0 0 1 188.84 -44.44)" id="Layer_1"  >
<path style="stroke: none; stroke-width: 1; stroke-dasharray: none; stroke-linecap: butt; stroke-dashoffset: 0; stroke-linejoin: miter; stroke-miterlimit: 4; fill: rgb(0,0,0); fill-rule: nonzero; opacity: 1;"  transform=" translate(-668.84, -435.56)" d="M 669.201538 434.880981 C 669.202698 435.203613 668.899475 435.866241 668.470093 436.237946 C 668.528442 435.705017 668.712769 435.462952 669.201538 434.880981 z" stroke-linecap="round" />
</g>
		<g transform="matrix(1 0 0 1 -2.69 4.72)" id="Layer_1"  >
<path style="stroke: none; stroke-width: 1; stroke-dasharray: none; stroke-linecap: butt; stroke-dashoffset: 0; stroke-linejoin: miter; stroke-miterlimit: 4; fill: rgb(0,0,0); fill-rule: nonzero; opacity: 1;"  transform=" translate(-477.31, -484.72)" d="M 477.22168 483.834656 C 477.717926 484.224213 477.914978 484.913208 478.112 485.602173 C 477.630127 485.528015 477.148224 485.453888 476.512512 485.072632 C 476.5466 484.554962 476.734528 484.344482 477.22168 483.834656 z" stroke-linecap="round" />
</g>
		<g transform="matrix(1 0 0 1 -37.98 6.09)" id="Layer_1"  >
<path style="stroke: none; stroke-width: 1; stroke-dasharray: none; stroke-linecap: butt; stroke-dashoffset: 0; stroke-linejoin: miter; stroke-miterlimit: 4; fill: rgb(0,0,0); fill-rule: nonzero; opacity: 1;"  transform=" translate(-442.02, -486.09)" d="M 441.703003 487.247375 C 441.470337 486.625488 441.513641 485.776337 441.556946 484.927155 C 441.870697 485.240662 442.184448 485.554169 442.512024 486.213501 C 442.343597 486.712891 442.161285 486.866455 441.703003 487.247375 z" stroke-linecap="round" />
</g>
		<g transform="matrix(1 0 0 1 163.93 -18.26)" id="Layer_1"  >
<path style="stroke: none; stroke-width: 1; stroke-dasharray: none; stroke-linecap: butt; stroke-dashoffset: 0; stroke-linejoin: miter; stroke-miterlimit: 4; fill: rgb(0,0,0); fill-rule: nonzero; opacity: 1;"  transform=" translate(-643.93, -461.74)" d="M 643.604919 462.257141 C 643.553894 461.995728 643.803894 461.48584 644.264526 461.225311 C 644.285461 461.652649 644.095642 461.830627 643.604919 462.257141 z" stroke-linecap="round" />
</g>
		<g transform="matrix(1 0 0 1 -159.19 -42.49)" id="Layer_1"  >
<path style="stroke: none; stroke-width: 1; stroke-dasharray: none; stroke-linecap: butt; stroke-dashoffset: 0; stroke-linejoin: miter; stroke-miterlimit: 4; fill: rgb(6,6,6); fill-rule: nonzero; opacity: 1;"  transform=" translate(-320.81, -437.51)" d="M 343.670166 440.660675 C 336.03186 444.683472 328.338379 448.606201 320.779297 452.772797 C 317.18631 454.753204 315.225769 454.210754 312.881256 450.548889 C 300.512299 431.230011 288.139709 411.932983 278.306152 391.143707 C 277.687592 389.835999 276.916748 388.600311 276.478424 386.605499 C 302.273743 404.360321 330.310425 415.919312 362.927887 418.014465 C 360.144806 420.538269 358.272156 422.549438 356.092133 424.139191 C 352.908936 426.460602 352.63208 429.088745 353.477356 432.829865 C 357.532715 450.778198 361.234924 468.806305 365.13501 487.146545 C 358.224823 489.476471 353.039642 488.322205 348.088257 485.783325 C 337.353485 480.278961 329.406403 471.601532 322.206116 463.020538 C 329.720367 455.961273 337.057953 449.067963 344.767151 441.710022 C 345.439819 440.843018 345.740875 440.440674 346.2948 439.986145 C 346.573975 439.716095 346.600342 439.49826 346.626709 439.280396 C 346.251404 439.297638 345.876099 439.31488 345.235016 439.450684 C 344.536224 439.933075 344.10321 440.296875 343.670166 440.660675 z" stroke-linecap="round" />
</g>
		<g transform="matrix(1 0 0 1 -202.2 -21.73)" id="Layer_1"  >
<path style="stroke: none; stroke-width: 1; stroke-dasharray: none; stroke-linecap: butt; stroke-dashoffset: 0; stroke-linejoin: miter; stroke-miterlimit: 4; fill: rgb(18,18,18); fill-rule: nonzero; opacity: 1;"  transform=" translate(-277.8, -458.27)" d="M 278.703247 466.511963 C 275.610718 467.156891 272.929077 467.721466 269.736176 468.393677 C 271.495422 461.56366 273.074463 455.433197 274.949982 448.151794 C 278.773071 454.001526 282.164032 459.190063 285.854156 464.836365 C 283.232544 465.456848 281.17334 465.944214 278.703247 466.511963 z" stroke-linecap="round" />
</g>
		<g transform="matrix(1 0 0 1 145.97 114.03)" id="Layer_1"  >
<path style="stroke: none; stroke-width: 1; stroke-dasharray: none; stroke-linecap: butt; stroke-dashoffset: 0; stroke-linejoin: miter; stroke-miterlimit: 4; fill: rgb(22,22,22); fill-rule: nonzero; opacity: 1;"  transform=" translate(-625.97, -594.03)" d="M 625.823608 597.678467 C 620.090271 597.104004 623.920227 593.396973 621.800842 590.376221 C 625.897461 591.337769 629.531677 589.74231 630.138855 594.031677 C 630.28418 595.057739 627.624146 596.480957 625.823608 597.678467 z" stroke-linecap="round" />
</g>
		<g transform="matrix(1 0 0 1 54.15 164.59)" id="Layer_1"  >
<path style="stroke: none; stroke-width: 1; stroke-dasharray: none; stroke-linecap: butt; stroke-dashoffset: 0; stroke-linejoin: miter; stroke-miterlimit: 4; fill: rgb(22,22,22); fill-rule: nonzero; opacity: 1;"  transform=" translate(-534.15, -644.59)" d="M 536.196838 644.247498 C 535.466187 646.255127 534.720398 647.815002 533.974548 649.374939 C 533.321777 647.691833 532.317261 646.047363 532.126587 644.313416 C 531.972046 642.907471 532.795349 641.393982 533.184875 639.928223 C 533.676758 639.889893 534.16864 639.851624 534.660461 639.813293 C 535.167542 641.142151 535.674561 642.470947 536.196838 644.247498 z" stroke-linecap="round" />
</g>
		<g transform="matrix(1 0 0 1 21.98 165.23)" id="Layer_1"  >
<path style="stroke: none; stroke-width: 1; stroke-dasharray: none; stroke-linecap: butt; stroke-dashoffset: 0; stroke-linejoin: miter; stroke-miterlimit: 4; fill: rgb(42,42,42); fill-rule: nonzero; opacity: 1;"  transform=" translate(-501.98, -645.23)" d="M 502.770386 649.446045 C 498.462738 647.331848 500.249298 644.036621 500.95517 641.017578 C 500.970642 640.951599 503.992279 641.415527 503.98526 641.542664 C 503.841614 644.15033 503.460999 646.744812 502.770386 649.446045 z" stroke-linecap="round" />
</g>
		<g transform="matrix(1 0 0 1 -135.02 -39.47)" id="Layer_1"  >
<path style="stroke: none; stroke-width: 1; stroke-dasharray: none; stroke-linecap: butt; stroke-dashoffset: 0; stroke-linejoin: miter; stroke-miterlimit: 4; fill: rgb(250,250,250); fill-rule: nonzero; opacity: 1;"  transform=" translate(-344.98, -440.53)" d="M 346.041931 440.03833 C 345.740875 440.440674 345.439819 440.843018 344.93457 441.41806 C 344.547546 441.442688 344.364746 441.294647 343.926056 440.903656 C 344.10321 440.296875 344.536224 439.933075 345.356201 439.638062 C 345.743134 439.706879 346.041931 440.03833 346.041931 440.03833 z" stroke-linecap="round" />
</g>
		<g transform="matrix(1 0 0 1 -133.88 -40.36)" id="Layer_1"  >
<path style="stroke: none; stroke-width: 1; stroke-dasharray: none; stroke-linecap: butt; stroke-dashoffset: 0; stroke-linejoin: miter; stroke-miterlimit: 4; fill: rgb(250,250,250); fill-rule: nonzero; opacity: 1;"  transform=" translate(-346.12, -439.64)" d="M 345.621948 439.519501 C 345.876099 439.31488 346.251404 439.297638 346.626709 439.280396 C 346.600342 439.49826 346.573975 439.716095 346.2948 439.986145 C 346.041931 440.03833 345.743134 439.706879 345.621948 439.519501 z" stroke-linecap="round" />
</g>
</g>
</g>
</svg>